<svg width="311" height="311" viewBox="0 0 311 311" fill="none" xmlns="http://www.w3.org/2000/svg">
<g clip-path="url(#clip0_1_144)">
<path d="M310.63 0.395996C139.295 0.395996 0.395996 139.281 0.395996 310.61C171.731 310.61 310.63 171.725 310.63 0.395996Z" fill="#047B42"/>
<path d="M0.395949 311.006H0V310.61C0 268.68 8.21294 228.004 24.4124 189.708C40.0599 152.718 62.458 119.502 90.9828 90.9768C119.509 62.4505 152.731 40.0538 189.721 24.4124C228.017 8.21294 268.692 0 310.63 0H311.026V0.395949C311.026 42.3276 302.813 83.0023 286.612 121.298C270.966 158.288 248.568 191.504 220.043 220.029C191.516 248.556 158.294 270.952 121.304 286.594C83.0083 302.793 42.3276 311 0.395949 311V311.006ZM310.234 0.791898C268.548 0.841392 228.104 9.03484 190.029 25.1353C153.133 40.7378 119.998 63.0789 91.5422 91.5287C63.0849 119.986 40.7453 153.114 25.1413 190.009C9.03484 228.092 0.847391 268.528 0.791898 310.216C42.4775 310.165 82.9213 301.971 120.997 285.871C157.892 270.268 191.027 247.927 219.483 219.477C247.939 191.02 270.28 157.892 285.884 120.997C301.989 82.9213 310.178 42.4835 310.234 0.797897V0.791898Z" fill="#047B42"/>
</g>
<defs>
<clipPath id="clip0_1_144">
<rect width="311" height="311" fill="white"/>
</clipPath>
</defs>
</svg>
