<svg width="75" height="75" viewBox="0 0 75 75" fill="none" xmlns="http://www.w3.org/2000/svg">
<mask id="mask0_1_88" style="mask-type:luminance" maskUnits="userSpaceOnUse" x="10" y="8" width="55" height="59">
<path d="M10.8992 8.53906H64.1008V66.5203H10.8992V8.53906Z" fill="white"/>
</mask>
<g mask="url(#mask0_1_88)">
<mask id="mask1_1_88" style="mask-type:luminance" maskUnits="userSpaceOnUse" x="10" y="8" width="55" height="59">
<path d="M41.0102 9.51953L60.5906 20.7836C62.7617 22.0328 64.1008 24.3477 64.1008 26.8531V48.1469C64.1008 50.6523 62.7617 52.9672 60.5906 54.2164L41.0102 65.4805C38.8375 66.7305 36.1625 66.7305 33.9899 65.4805L14.4094 54.2164C12.2383 52.9672 10.8992 50.6523 10.8992 48.1469V26.8531C10.8992 24.3477 12.2383 22.0328 14.4094 20.7836L33.9899 9.51953C36.1625 8.26953 38.8375 8.26953 41.0102 9.51953Z" fill="white"/>
</mask>
<g mask="url(#mask1_1_88)">
<path d="M10.8992 7.5H64.1008V67.5594H10.8992V7.5Z" fill="#106433"/>
</g>
</g>
<mask id="mask2_1_88" style="mask-type:luminance" maskUnits="userSpaceOnUse" x="22" y="22" width="31" height="31">
<path d="M22.5 22.5H52.5V52.5H22.5V22.5Z" fill="white"/>
</mask>
<g mask="url(#mask2_1_88)">
<path fill-rule="evenodd" clip-rule="evenodd" d="M43.4187 23.643C45.2351 24.3922 46.8351 25.4719 48.1812 26.8187C49.5281 28.1648 50.6078 29.7648 51.357 31.5812C52.0937 33.3852 52.5 35.3789 52.5 37.5C52.5 39.6211 52.0937 41.6148 51.357 43.4187C50.6078 45.2351 49.5281 46.8351 48.1812 48.1812C46.8351 49.5281 45.2351 50.6078 43.4187 51.357C41.6148 52.0937 39.6211 52.5 37.5 52.5C35.3789 52.5 33.3852 52.0937 31.5812 51.357C29.7648 50.6078 28.1648 49.5281 26.8187 48.1812C25.4719 46.8351 24.3922 45.2351 23.643 43.4187C22.9062 41.6148 22.5 39.6211 22.5 37.5C22.5 35.3789 22.9062 33.3852 23.643 31.5812C24.3922 29.7648 25.4719 28.1648 26.8187 26.8187C28.1648 25.4719 29.7648 24.3922 31.5812 23.643C33.3852 22.9062 35.3789 22.5 37.5 22.5C39.6211 22.5 41.6148 22.9062 43.4187 23.643ZM43.0633 50.4555C44.7398 49.7695 46.2508 48.7531 47.5086 47.5086C48.7531 46.2508 49.7695 44.7398 50.4555 43.0633C51.1539 41.3609 51.5344 39.4937 51.5344 37.5C51.5344 35.5062 51.1539 33.6391 50.4555 31.9367C49.7695 30.2602 48.7531 28.7492 47.5086 27.4914C46.2508 26.2469 44.7398 25.2305 43.0633 24.5445C41.3609 23.8461 39.4937 23.4656 37.5 23.4656C35.5062 23.4656 33.6391 23.8461 31.9367 24.5445C30.2602 25.2305 28.7492 26.2469 27.4914 27.4914C26.2469 28.7492 25.2305 30.2602 24.5445 31.9367C23.8461 33.6391 23.4656 35.5062 23.4656 37.5C23.4656 39.4937 23.8461 41.3609 24.5445 43.0633C25.2305 44.7398 26.2469 46.2508 27.4914 47.5086C28.7492 48.7531 30.2602 49.7695 31.9367 50.4555C33.6391 51.1539 35.5062 51.5344 37.5 51.5344C39.4937 51.5344 41.3609 51.1539 43.0633 50.4555Z" fill="white"/>
</g>
<path fill-rule="evenodd" clip-rule="evenodd" d="M34.9852 31.4289C34.9602 31.4289 34.9344 31.4414 34.9086 31.4539C34.8453 31.4797 34.7945 31.518 34.7437 31.5563C34.7055 31.6071 34.668 31.6578 34.6422 31.7211C34.6297 31.7461 34.6172 31.7719 34.6172 31.7969C34.6039 31.8227 34.6039 31.8352 34.6039 31.861V32.3563H40.3195V31.861C40.3195 31.8352 40.3195 31.8227 40.307 31.7969C40.307 31.7719 40.2945 31.7461 40.2812 31.7211C40.2562 31.6703 40.218 31.6071 40.1672 31.5688C40.1164 31.518 40.0656 31.4797 40.0023 31.4539C39.9766 31.4414 39.9516 31.4289 39.9258 31.4289C39.9008 31.4164 39.8875 31.4164 39.8625 31.4164H35.0484C35.0234 31.4164 35.0109 31.4164 34.9852 31.4289ZM33.6391 31.861C33.6391 31.7594 33.6516 31.6703 33.6773 31.5813C33.6898 31.4922 33.7281 31.4031 33.7656 31.3149C33.8297 31.1492 33.9437 31.0094 34.0703 30.8828C34.1977 30.7555 34.3375 30.6414 34.5023 30.5781C34.5914 30.5399 34.6805 30.5016 34.7695 30.4891C34.8578 30.4633 34.9469 30.4508 35.0484 30.4508H39.8625C39.9641 30.4508 40.0531 30.4633 40.1422 30.4891C40.2305 30.5016 40.3195 30.5399 40.4086 30.5781C40.5734 30.6414 40.7133 30.7555 40.8406 30.8828C40.9805 30.9969 41.082 31.1492 41.1578 31.3149C41.1961 31.3906 41.2344 31.4797 41.2469 31.5688C41.2719 31.6703 41.2851 31.7594 41.2851 31.861V32.3563H44.7906C45.5273 32.3563 46.2766 33.093 46.2766 33.8297V35.1633L38.5672 37.6906C38.5164 37.6649 38.4656 37.6524 38.4273 37.6399C38.3766 37.6274 38.3125 37.6274 38.2617 37.6274H36.6617C36.6109 37.6274 36.5477 37.6274 36.4969 37.6399C36.4586 37.6524 36.4078 37.6649 36.3695 37.6781L28.6602 35.1633V33.8297C28.6602 33.093 29.3969 32.3563 30.1336 32.3563H33.6391V31.861ZM36.6492 38.275H38.275C38.2875 38.275 38.3 38.275 38.3125 38.275C38.3258 38.2875 38.3508 38.3 38.3641 38.3258C38.3891 38.3383 38.4016 38.3641 38.4148 38.3766C38.4148 38.3891 38.4148 38.3891 38.4148 38.4016L38.4273 38.4149V38.961L38.4148 38.9735C38.4148 38.986 38.4148 38.9985 38.4148 38.9985C38.4016 39.0242 38.3891 39.0492 38.3641 39.0625C38.3508 39.0875 38.3258 39.1 38.3 39.1133C38.3 39.1133 38.2875 39.1133 38.275 39.1133L38.2617 39.1258H36.6617L36.6492 39.1133C36.6359 39.1133 36.6234 39.1133 36.6234 39.1133C36.5984 39.1 36.5727 39.0875 36.5602 39.0625C36.5344 39.0492 36.5219 39.0242 36.5094 38.9985C36.5094 38.9985 36.5094 38.986 36.5094 38.9735V38.4016C36.5094 38.3891 36.5094 38.3891 36.5094 38.3766C36.5219 38.3641 36.5344 38.3383 36.5602 38.3258C36.5727 38.3 36.5984 38.2875 36.6109 38.275C36.6234 38.275 36.6359 38.275 36.6492 38.275ZM39.0492 38.2492C39.0492 38.2367 39.0367 38.2242 39.0367 38.211L46.2766 35.836V42.5172C46.2766 43.2539 45.5273 44.0031 44.7906 44.0031H30.1336C29.3969 44.0031 28.6602 43.2539 28.6602 42.5172V35.836L35.8867 38.211C35.8867 38.2242 35.8742 38.2367 35.8742 38.2492C35.8617 38.3 35.8617 38.3641 35.8617 38.4149V38.961C35.8617 39.0117 35.8617 39.075 35.8742 39.1258C35.8867 39.1766 35.9 39.2274 35.925 39.2781C35.9633 39.3672 36.0266 39.443 36.1031 39.5196C36.1789 39.5953 36.2555 39.6594 36.3445 39.6977C36.3953 39.7227 36.4461 39.7352 36.4969 39.7485C36.5477 39.761 36.6109 39.7735 36.6617 39.7735H38.2617C38.3125 39.7735 38.3766 39.761 38.4273 39.7485C38.4781 39.7352 38.5289 39.7227 38.5797 39.6977C38.6687 39.6594 38.7445 39.5953 38.8211 39.5196C38.8969 39.443 38.9609 39.3672 38.9984 39.2781C39.0242 39.2274 39.0367 39.1766 39.0492 39.1258C39.0625 39.075 39.075 39.0117 39.075 38.961V38.4149C39.075 38.3641 39.0625 38.3 39.0492 38.2492Z" fill="white"/>
</svg>
