<svg width="75" height="75" viewBox="0 0 75 75" fill="none" xmlns="http://www.w3.org/2000/svg">
<mask id="mask0_1_67" style="mask-type:luminance" maskUnits="userSpaceOnUse" x="10" y="8" width="55" height="59">
<path d="M10.8992 8.53906H64.1008V66.5203H10.8992V8.53906Z" fill="white"/>
</mask>
<g mask="url(#mask0_1_67)">
<mask id="mask1_1_67" style="mask-type:luminance" maskUnits="userSpaceOnUse" x="10" y="8" width="55" height="59">
<path d="M41.0102 9.51953L60.5906 20.7836C62.7617 22.0328 64.1008 24.3477 64.1008 26.8531V48.1469C64.1008 50.6523 62.7617 52.9672 60.5906 54.2164L41.0102 65.4805C38.8375 66.7305 36.1625 66.7305 33.9899 65.4805L14.4094 54.2164C12.2383 52.9672 10.8992 50.6523 10.8992 48.1469V26.8531C10.8992 24.3477 12.2383 22.0328 14.4094 20.7836L33.9899 9.51953C36.1625 8.26953 38.8375 8.26953 41.0102 9.51953Z" fill="white"/>
</mask>
<g mask="url(#mask1_1_67)">
<path d="M10.8992 7.5H64.1008V67.5594H10.8992V7.5Z" fill="#106433"/>
</g>
</g>
<path d="M35.7914 34.6734C35.4258 33.5273 34.5906 32.5515 33.5554 32.0617C31.5562 31.1133 29.4718 31.2414 27.6742 31.4344C27.4445 31.4586 27.2437 31.6008 27.1437 31.8094C27.0429 32.018 27.0586 32.2633 27.1836 32.4586C27.4062 32.8078 27.7328 33.3414 27.8906 33.6297C28.2906 34.3586 28.4781 35.2008 28.6226 35.9328C28.9742 37.7031 30.7101 39.393 33.025 39.393C33.2672 39.393 33.5156 39.3742 33.7695 39.3351C34.1343 39.2797 34.3851 38.9383 34.3289 38.5742C34.2734 38.2086 33.9281 37.9562 33.5672 38.014C31.7258 38.2937 30.2031 37.0305 29.9343 35.6726C29.7703 34.8422 29.5531 33.882 29.0625 32.9859C29.0125 32.8953 28.95 32.7867 28.8812 32.6695C30.4187 32.5726 31.7445 32.682 32.9828 33.2695C33.6883 33.6039 34.2625 34.2805 34.5179 35.0797C34.6351 35.4476 34.7156 35.9476 34.6125 36.5195C34.0109 35.8508 33.2867 35.1351 32.3937 34.3672C32.114 34.1265 31.6914 34.1586 31.4515 34.439C31.2101 34.7187 31.2429 35.1406 31.5226 35.3812C32.7078 36.4 33.5797 37.3101 34.232 38.1211C34.2734 38.2109 34.3351 38.2906 34.414 38.3555C35.6609 39.9719 36.0273 41.1703 36.2781 42.0023C36.3125 42.1164 36.3453 42.2219 36.3765 42.3219C35.7031 43.7398 35.2937 45.0719 35.1093 46.0805C35.0429 46.443 35.2836 46.7914 35.6461 46.8578C35.6875 46.8656 35.7273 46.8687 35.7679 46.8687C36.0843 46.8687 36.3656 46.643 36.4242 46.3203C36.6023 45.3469 37.0062 44.0437 37.6859 42.6656C37.6945 42.6484 37.7031 42.632 37.7109 42.614C38.1289 41.7734 38.6547 40.9086 39.2929 40.0711C39.3461 40.0633 39.4 40.0515 39.4531 40.0297C40.9578 39.4117 42.6992 39.8039 42.7164 39.8078C43.0758 39.8914 43.4343 39.668 43.5195 39.3094C43.6039 38.9508 43.3812 38.5906 43.0218 38.5055C42.9633 38.4914 42.0078 38.275 40.8093 38.3687C41.7523 37.4726 42.8625 36.6695 44.1672 36.0531C44.5008 35.8953 44.6429 35.4969 44.4851 35.1633C44.3273 34.8297 43.9289 34.6875 43.5953 34.8445C42.8398 35.2015 42.1484 35.6187 41.5062 36.0742L41.5351 35.9734C41.6367 35.6187 41.432 35.2484 41.0773 35.1461C40.7218 35.0445 40.3523 35.25 40.2508 35.6039L39.6906 37.5547C39.6851 37.5758 39.6836 37.5961 39.6797 37.6164C38.8109 38.4781 38.0726 39.4086 37.4672 40.35C37.1468 39.2476 37.2914 38.2773 37.5093 37.5945C37.9117 36.3336 38.8195 35.2648 39.9375 34.7351C41.9633 33.7773 44.1211 33.6547 46.657 33.8594C46.4586 34.1844 46.2656 34.5133 46.132 34.7578C45.4289 36.0406 45.1164 37.4281 44.8797 38.6273C44.6289 39.8922 43.9304 40.9805 42.964 41.614C41.9156 42.2992 40.5922 42.4742 39.0328 42.1312C38.6718 42.0539 38.3156 42.2805 38.2367 42.6414C38.1578 43.0015 38.3859 43.3586 38.7468 43.4375C39.3484 43.5695 39.9312 43.6351 40.4898 43.6351C41.6914 43.6351 42.7797 43.3312 43.6953 42.7328C44.9789 41.893 45.8656 40.5273 46.1906 38.8867C46.4086 37.7851 46.6922 36.5164 47.3047 35.4C47.5343 34.9789 48.0187 34.1867 48.357 33.6555C48.4812 33.4601 48.4961 33.2156 48.3953 33.0062C48.2953 32.7984 48.0945 32.6562 47.8648 32.632C45.2609 32.3523 42.2414 32.168 39.3656 33.5281C37.9187 34.2133 36.7484 35.582 36.2359 37.1875C36.1218 37.5453 36.0476 37.9086 36.0015 38.2734C35.8859 38.1031 35.7609 37.9273 35.6265 37.7476C36.0554 36.7648 36.1164 35.6898 35.7914 34.6734Z" fill="white"/>
<mask id="mask2_1_67" style="mask-type:luminance" maskUnits="userSpaceOnUse" x="23" y="20" width="17" height="31">
<path d="M23.2 20.2289H39.8V50.8H23.2V20.2289Z" fill="white"/>
</mask>
<g mask="url(#mask2_1_67)">
<path d="M31.9055 50.6562C31.9914 50.6929 32.0789 50.7101 32.1664 50.7101C32.4266 50.7101 32.6742 50.557 32.7828 50.3031C32.9273 49.9632 32.7687 49.571 32.4289 49.4265C27.1617 47.182 24.0351 41.846 24.6484 36.1476C25.3508 29.6304 30.8062 24.7601 37.1945 24.6124L35.5437 25.9413C35.257 26.1726 35.2117 26.5937 35.443 26.8812C35.575 27.0453 35.768 27.1304 35.9641 27.1304C36.1109 27.1304 36.2594 27.082 36.3828 26.9828L39.4211 24.5359C39.7086 24.3038 39.7539 23.8828 39.5226 23.5953L37.0758 20.5578C36.8445 20.2703 36.4234 20.2242 36.1359 20.4562C35.8484 20.6874 35.8031 21.1085 36.0344 21.396L37.5422 23.2679C30.3351 23.2398 24.1086 28.6835 23.3195 36.0038C22.6422 42.2921 26.093 48.1796 31.9055 50.6562Z" fill="white"/>
</g>
<mask id="mask3_1_67" style="mask-type:luminance" maskUnits="userSpaceOnUse" x="35" y="24" width="17" height="31">
<path d="M35.2 24.2H51.8V54.7289H35.2V24.2Z" fill="white"/>
</mask>
<g mask="url(#mask3_1_67)">
<path d="M42.4493 25.5859C47.7133 27.7633 50.9641 33.2453 50.3539 38.9172C49.6516 45.4352 44.1938 50.307 37.8055 50.4523L39.4563 49.1234C39.7438 48.8914 39.7891 48.4703 39.5579 48.1836C39.3258 47.8953 38.9047 47.85 38.618 48.082L35.5789 50.5289C35.4414 50.6406 35.3532 50.8016 35.3336 50.9781C35.3149 51.1539 35.3672 51.3312 35.4774 51.4688L37.9258 54.507C38.0579 54.6711 38.2508 54.7562 38.4461 54.7562C38.5938 54.7562 38.7414 54.7078 38.8657 54.6086C39.1524 54.3766 39.1985 53.9555 38.9664 53.6687L37.4571 51.7953C37.475 51.7953 37.493 51.7969 37.511 51.7969C44.6961 51.7961 50.8961 46.3633 51.6828 39.0609C52.3563 32.8031 48.7696 26.7539 42.9594 24.3508C42.6188 24.2102 42.2274 24.3727 42.086 24.7133C41.9454 25.0531 42.1079 25.4445 42.4493 25.5859Z" fill="white"/>
</g>
</svg>
