<svg width="75" height="75" viewBox="0 0 75 75" fill="none" xmlns="http://www.w3.org/2000/svg">
<mask id="mask0_1_56" style="mask-type:luminance" maskUnits="userSpaceOnUse" x="10" y="8" width="55" height="59">
<path d="M10.8992 8.53906H64.1008V66.5203H10.8992V8.53906Z" fill="white"/>
</mask>
<g mask="url(#mask0_1_56)">
<mask id="mask1_1_56" style="mask-type:luminance" maskUnits="userSpaceOnUse" x="10" y="8" width="55" height="59">
<path d="M41.0102 9.51953L60.5906 20.7836C62.7617 22.0328 64.1008 24.3477 64.1008 26.8531V48.1469C64.1008 50.6523 62.7617 52.9672 60.5906 54.2164L41.0102 65.4805C38.8375 66.7305 36.1625 66.7305 33.9898 65.4805L14.4094 54.2164C12.2383 52.9672 10.8992 50.6523 10.8992 48.1469V26.8531C10.8992 24.3477 12.2383 22.0328 14.4094 20.7836L33.9898 9.51953C36.1625 8.26953 38.8375 8.26953 41.0102 9.51953Z" fill="white"/>
</mask>
<g mask="url(#mask1_1_56)">
<path d="M10.8992 7.5H64.1008V67.5594H10.8992V7.5Z" fill="#106433"/>
</g>
</g>
<path d="M38.4461 23.0593C29.7227 22.5015 22.5016 29.7226 23.0594 38.4461C23.5203 45.6562 29.3437 51.4797 36.5547 51.9414C45.2773 52.4992 52.4992 45.2773 51.9414 36.5547C51.4797 29.3437 45.6562 23.5203 38.4461 23.0593ZM44.0523 44.6804C44.6219 42.725 44.9609 40.4757 45.007 38.0562H50.8445C50.7164 41.1586 49.525 43.9898 47.6266 46.1968C46.7555 45.5867 45.5383 45.0703 44.0523 44.6804ZM27.3734 46.1968C25.475 43.9898 24.2836 41.1586 24.1562 38.0562H29.993C30.0391 40.4757 30.3781 42.725 30.9476 44.6804C29.4617 45.0711 28.2437 45.5867 27.3734 46.1968ZM30.9445 30.3289C30.3773 32.2828 30.0383 34.5281 29.993 36.9437H24.1562C24.2836 33.8562 25.4633 31.0375 27.3461 28.8343C28.232 29.4351 29.4578 29.9437 30.9445 30.3289ZM36.9437 36.9437H31.1062C31.1539 34.6398 31.4969 32.4656 32.0562 30.5851C33.5609 30.8883 35.2289 31.0609 36.9437 31.0922V36.9437ZM36.9437 38.0562V43.9078C35.2258 43.939 33.557 44.1148 32.0586 44.4218C31.4976 42.539 31.1547 40.3625 31.1062 38.0562H36.9437ZM38.0562 38.0562H43.8937C43.8461 40.3625 43.5023 42.539 42.9414 44.4218C41.4422 44.1148 39.7742 43.939 38.0562 43.9078V38.0562ZM38.0562 36.9437V31.0922C39.7711 31.0609 41.4391 30.8883 42.9437 30.5843C43.5031 32.4656 43.8461 34.6398 43.8937 36.9437H38.0562ZM38.0562 29.9789V24.1984C39.8844 24.5453 41.5203 26.575 42.593 29.5211C41.1937 29.7937 39.6469 29.9492 38.0562 29.9789ZM36.9437 24.1984V29.9789C35.3531 29.9492 33.8062 29.7937 32.407 29.5211C33.4797 26.575 35.1156 24.5445 36.9437 24.1984ZM36.9437 45.0211V50.8023C35.1164 50.4554 33.482 48.4273 32.4094 45.4851C33.8031 45.2086 35.35 45.0515 36.9437 45.0211ZM38.0562 50.8015V45.0211C39.65 45.0515 41.1961 45.2086 42.5906 45.4851C41.518 48.4273 39.8836 50.4554 38.0562 50.8015ZM45.007 36.9437C44.9617 34.5281 44.6226 32.2828 44.0555 30.3289C45.5422 29.9429 46.768 29.4351 47.6539 28.8343C49.5367 31.0375 50.7164 33.8562 50.8437 36.9437H45.007ZM46.8844 28.0047C46.1055 28.4976 45.0148 28.9336 43.7156 29.2672C43.0172 27.2922 42.0687 25.6851 40.9516 24.5961C43.2234 25.2047 45.2586 26.3976 46.8844 28.0047ZM31.2851 29.2672C29.9851 28.9336 28.8953 28.4984 28.1156 28.0047C29.7414 26.3976 31.7766 25.2047 34.0492 24.5968C32.9312 25.6851 31.9828 27.2922 31.2851 29.2672ZM28.1437 47.0226C28.9062 46.5218 29.9883 46.0797 31.2883 45.7422C31.9859 47.7125 32.9336 49.3164 34.0484 50.4039C31.7898 49.7984 29.7656 48.6156 28.1437 47.0226ZM43.7117 45.7422C45.0109 46.0797 46.0937 46.5218 46.8562 47.0226C45.2344 48.6156 43.2109 49.7992 40.9516 50.4039C42.0664 49.3164 43.0133 47.7125 43.7117 45.7422Z" fill="white"/>
</svg>
