<svg width="311" height="311" viewBox="0 0 311 311" fill="none" xmlns="http://www.w3.org/2000/svg">
<g clip-path="url(#clip0_1_147)">
<path d="M0.370392 0.395996C171.705 0.395996 310.604 139.281 310.604 310.61C139.269 310.61 0.370392 171.725 0.370392 0.395996Z" fill="#047B42"/>
<path d="M310.604 311.006H311V310.61C311 268.68 302.787 228.004 286.588 189.708C270.94 152.718 248.542 119.502 220.017 90.9768C191.491 62.4505 158.269 40.0538 121.279 24.4124C82.9828 8.21294 42.308 0 0.370392 0H-0.0255432V0.395949C-0.0255432 42.3276 8.18741 83.0023 24.3883 121.298C40.0343 158.288 62.4324 191.504 90.9573 220.029C119.484 248.556 152.706 270.952 189.696 286.594C227.992 302.793 268.672 311 310.604 311V311.006ZM0.766357 0.791898C42.452 0.841392 82.8958 9.03484 120.971 25.1353C157.867 40.7378 191.002 63.0789 219.458 91.5287C247.915 119.986 270.255 153.114 285.859 190.009C301.965 228.092 310.153 268.528 310.208 310.216C268.522 310.165 228.079 301.971 190.003 285.871C153.108 270.268 119.973 247.927 91.5167 219.477C63.0609 191.02 40.7197 157.892 25.1157 120.997C9.0108 82.9213 0.821838 42.4835 0.766357 0.797897V0.791898Z" fill="#047B42"/>
</g>
<defs>
<clipPath id="clip0_1_147">
<rect width="311" height="311" fill="white" transform="matrix(-1 0 0 1 311 0)"/>
</clipPath>
</defs>
</svg>
